<svg width="139" height="110" viewBox="0 0 139 110" fill="none" xmlns="http://www.w3.org/2000/svg">
<g clip-path="url(#clip0_2382_8778)">
<path d="M9.31647 28.6106V5.05236H0V0H24.1994V5.05236H14.8829V28.6106H9.31647ZM34.219 29.2076C32.1697 29.2541 30.1457 28.7512 28.3596 27.7516C26.7011 26.8067 25.3413 25.4198 24.4338 23.7475C23.4574 21.9607 22.9534 19.9568 22.9689 17.9235C22.9357 15.8604 23.4404 13.8239 24.4338 12.0121C25.3536 10.3466 26.7235 8.96983 28.3889 8.03718C30.1755 7.03891 32.1992 6.53604 34.2483 6.58117C36.2972 6.53747 38.3205 7.04024 40.1077 8.03718C41.7332 8.98263 43.062 10.3589 43.9456 12.0121C44.9214 13.7991 45.4253 15.8029 45.4105 17.8361C45.4292 19.8698 44.925 21.8745 43.9456 23.6602C43.0279 25.331 41.6578 26.713 39.9905 27.6496C38.2206 28.6738 36.2084 29.2115 34.1604 29.2076H34.219ZM34.219 24.1552C34.9821 24.2118 35.7476 24.0807 36.4476 23.7734C37.1476 23.4662 37.7607 22.9922 38.2327 22.3934C39.1621 21.0751 39.6257 19.4878 39.5511 17.8798C39.6347 16.2504 39.1652 14.6404 38.218 13.3079C37.7252 12.7281 37.0993 12.2745 36.3931 11.9857C35.6869 11.6968 34.9211 11.581 34.1604 11.6481C33.127 11.6157 32.1073 11.8894 31.2307 12.4343C30.4325 12.9471 29.8095 13.6883 29.4436 14.5601C29.0439 15.6057 28.8499 16.7178 28.8723 17.8361C28.7896 19.4721 29.2644 21.088 30.2199 22.4226C30.6919 23.0008 31.2952 23.4594 31.9802 23.7606C32.6653 24.0618 33.4125 24.1971 34.1604 24.1552H34.219ZM49.9369 28.6106L49.9222 0H55.5766V17.4721L63.0766 7.13445H69.9761L61.978 17.8652L70.5034 28.596H63.1791L55.518 18.2584V28.596L49.9369 28.6106ZM82.5006 29.2076C80.4063 29.2401 78.3387 28.7388 76.4947 27.7516C74.8036 26.8443 73.399 25.4884 72.437 23.8349C71.4369 22.0997 70.9305 20.1267 70.9722 18.1273C70.9313 15.9985 71.4354 13.8942 72.437 12.0121C73.351 10.3235 74.7207 8.92174 76.3921 7.96438C78.1788 6.9661 80.2025 6.46324 82.2516 6.50837C84.2976 6.48972 86.306 7.05575 88.0377 8.1391C89.6761 9.22534 90.9392 10.7857 91.6559 12.609C92.4621 14.7752 92.7382 17.1009 92.4616 19.3941H86.9537V17.4721C87.0876 15.8264 86.7092 14.1795 85.8697 12.7546C85.4467 12.2465 84.9055 11.8484 84.293 11.5947C83.6805 11.341 83.015 11.2394 82.3541 11.2986C81.5717 11.2364 80.7855 11.3567 80.0581 11.6499C79.3307 11.9432 78.6823 12.4012 78.1646 12.9876C77.1672 14.4397 76.6923 16.1841 76.8169 17.938C76.7208 19.5936 77.1963 21.2323 78.1646 22.5827C78.6499 23.1388 79.2583 23.5755 79.942 23.8585C80.6257 24.1414 81.3661 24.2629 82.1051 24.2134C83.1099 24.2329 84.0999 23.9705 84.9615 23.4563C85.7522 22.9932 86.3771 22.2957 86.7487 21.4616L92.2858 23.005C91.4968 24.9123 90.1097 26.5157 88.3307 27.5768C86.559 28.6552 84.5194 29.22 82.442 29.2076H82.5006ZM75.1763 19.3941V15.3755H89.8248V19.3941H75.1763ZM96.5046 28.6106V7.14901H101.456V14.2689H102.159V28.6106H96.5046ZM111.637 28.6106V18.4185C111.637 17.9235 111.607 17.2974 111.549 16.5403C111.496 15.7521 111.323 14.9764 111.036 14.2398C110.726 13.3978 110.14 12.6841 109.372 12.2139C108.604 11.7437 107.699 11.5444 106.803 11.6481C106.307 11.659 105.815 11.7324 105.338 11.8665C104.792 12.0361 104.292 12.3246 103.873 12.711C103.277 13.2046 102.819 13.841 102.54 14.5601C102.194 15.597 102.036 16.6862 102.071 17.7779L98.8776 16.3219C98.8677 14.6765 99.2281 13.0498 99.9323 11.5607C100.639 10.0806 101.757 8.83258 103.155 7.96438C104.779 6.99618 106.653 6.5205 108.546 6.59573C110.009 6.53423 111.466 6.82388 112.794 7.44021C113.813 7.94487 114.693 8.68964 115.357 9.60967C115.942 10.4416 116.378 11.3676 116.646 12.347C116.907 13.1675 117.089 14.011 117.188 14.8659C117.188 15.6375 117.188 16.2054 117.188 16.5694V28.6106H111.637ZM2.46095 64.0644V35.483H7.47076L17.2267 54.4111L26.9826 35.483H31.9924V64.0644H26.7775V47L18.2081 64.0644H16.2452L7.67583 47V64.0644H2.46095ZM43.9456 64.676C42.551 64.7186 41.1673 64.4185 39.9173 63.8024C38.8744 63.2612 38.0062 62.4386 37.4124 61.4291C36.8322 60.4643 36.5189 59.3643 36.5042 58.2404C36.495 57.3122 36.6538 56.39 36.9729 55.5177C37.2876 54.6884 37.7886 53.9414 38.4378 53.3337C39.2749 52.6334 40.2397 52.0995 41.2796 51.7612C42.2356 51.4321 43.2148 51.1742 44.2093 50.9895C45.3519 50.7565 46.6409 50.5527 48.0765 50.3343L52.808 49.6499L50.8011 50.7274C50.8425 50.2227 50.7808 49.7148 50.6197 49.2344C50.4586 48.754 50.2014 48.311 49.8636 47.9319C48.961 47.2456 47.831 46.9232 46.6995 47.0291C45.8133 47.0418 44.9398 47.2403 44.136 47.6115C43.6962 47.8 43.3016 48.0792 42.9783 48.4306C42.6551 48.782 42.4106 49.1976 42.261 49.6499L37.2805 48.0483C37.8105 46.2798 38.9254 44.7408 40.4446 43.6803C42.3161 42.4682 44.5279 41.8816 46.7581 42.0059C48.531 41.9747 50.2943 42.2709 51.9584 42.8795C53.4422 43.431 54.6718 44.503 55.4154 45.8934C55.8246 46.6331 56.0881 47.4435 56.1918 48.2813C56.2792 49.1716 56.3183 50.0659 56.309 50.9604V64.0644H51.431V59.6964L52.1342 60.5991C51.2194 61.8915 50.0226 62.9617 48.6332 63.7296C47.1676 64.4079 45.5613 64.7322 43.9456 64.676ZM45.1321 60.4244C46.0256 60.4522 46.9133 60.2727 47.7249 59.9003C48.3556 59.6087 48.9267 59.2039 49.4095 58.7063C49.7424 58.3671 50.0281 57.9852 50.2591 57.5706C50.5632 56.932 50.7327 56.2383 50.7572 55.5322C50.7572 54.7605 50.7572 54.0762 50.7572 53.5957L52.3978 53.9889L48.3402 54.6586C47.3148 54.8333 46.4798 54.9935 45.8499 55.1537C45.2881 55.2713 44.7351 55.427 44.1946 55.6196C43.7287 55.7932 43.2859 56.023 42.8763 56.3039C42.571 56.5189 42.3161 56.7971 42.1292 57.1193C41.9528 57.4702 41.8734 57.8614 41.8991 58.2528C41.9249 58.6443 42.0548 59.0219 42.2757 59.347C42.5476 59.7164 42.9254 59.9955 43.3597 60.1478C43.9062 60.3547 44.4893 60.4488 45.0736 60.4244H45.1321ZM61.6411 64.0644V42.632H66.563V47.8736L66.0356 47.2038C66.3125 46.4627 66.6975 45.7661 67.1782 45.1363C67.6678 44.5407 68.27 44.0461 68.9507 43.6803C69.4945 43.354 70.0811 43.1041 70.6938 42.9377C71.3293 42.7543 71.9822 42.6372 72.6421 42.5883C73.3094 42.5231 73.9816 42.5231 74.649 42.5883V47.6261C73.9527 47.4392 73.2288 47.3751 72.5103 47.4368C71.7475 47.5113 71.0038 47.7182 70.313 48.0483C69.6877 48.3214 69.1246 48.7177 68.6577 49.2131C68.2 49.7036 67.8507 50.2839 67.6323 50.9167C67.389 51.6291 67.2701 52.3776 67.2807 53.1298V64.0644H61.6411ZM78.5015 64.0644V35.4684H84.1559V52.9405L91.6706 42.6174H98.5554L90.5573 53.3482L99.1267 64.0644H91.8024L84.1266 53.7413V64.0644H78.5015ZM111.065 64.6614C108.976 64.694 106.913 64.1927 105.074 63.2054C103.413 62.3048 102.03 60.9708 101.075 59.347C100.077 57.6109 99.5706 55.6385 99.6101 53.6394C99.5712 51.5061 100.075 49.3976 101.075 47.5096C101.995 45.8244 103.37 44.4277 105.045 43.4765C106.83 42.4748 108.855 41.9717 110.904 42.0205C112.972 41.967 115.009 42.5189 116.764 43.6075C118.366 44.6939 119.594 46.2444 120.279 48.0483C121.088 50.2088 121.369 52.5292 121.099 54.8188H115.577V52.8823C115.714 51.2381 115.341 49.5916 114.508 48.1648C114.085 47.6567 113.543 47.2586 112.931 47.0049C112.318 46.7512 111.653 46.6496 110.992 46.7088C110.208 46.6425 109.42 46.7593 108.69 47.0501C107.96 47.3408 107.309 47.7974 106.788 48.3832C105.801 49.8499 105.336 51.6031 105.469 53.3628C105.363 55.0128 105.834 56.6487 106.803 57.9929C107.281 58.5613 107.887 59.0112 108.57 59.3069C109.254 59.6026 109.998 59.7359 110.743 59.6964C111.727 59.7216 112.699 59.48 113.555 58.9975C114.338 58.5224 114.956 57.8215 115.328 56.9882L120.909 58.5462C120.12 60.4454 118.739 62.0429 116.969 63.1035C115.188 64.1662 113.142 64.711 111.065 64.676V64.6614ZM103.741 54.8479V50.8584H118.389V54.8625L103.741 54.8479ZM123.267 46.7816V42.632H139V46.7962L123.267 46.7816ZM139 64.0644C137.518 64.3463 136.011 64.4732 134.503 64.443C133.154 64.4265 131.82 64.1701 130.562 63.6859C129.445 63.2553 128.513 62.4524 127.926 61.4145C127.401 60.4976 127.105 59.4691 127.061 58.4151C127.061 57.4105 127.061 56.2602 127.061 54.9789V36.6623H132.643V54.6732C132.643 55.5031 132.643 56.2602 132.643 56.93C132.636 57.4876 132.783 58.0364 133.067 58.517C133.327 58.9012 133.678 59.2154 134.09 59.4314C134.501 59.6474 134.96 59.7585 135.426 59.7547C136.624 59.82 137.827 59.7664 139.015 59.5945L139 64.0644ZM15.1319 100.159C12.4662 100.226 9.83086 99.5829 7.50005 98.2952C5.37546 97.0659 3.6555 95.2501 2.54885 93.0682C1.41046 90.6195 0.820872 87.9542 0.820872 85.2567C0.820872 82.5592 1.41046 79.8939 2.54885 77.4452C3.65964 75.2661 5.37861 73.4514 7.50005 72.2181C9.83086 70.9304 12.4662 70.2869 15.1319 70.3544C18.1677 70.2483 21.1586 71.105 23.672 72.8005C25.9741 74.422 27.6856 76.7412 28.55 79.4108L22.925 80.8668C22.4675 79.2552 21.4959 77.8347 20.1564 76.8191C18.6837 75.8073 16.921 75.2965 15.1319 75.3631C13.4839 75.2994 11.8535 75.7197 10.4444 76.5716C9.16335 77.4229 8.18044 78.6492 7.63189 80.0806C6.36217 83.4259 6.36217 87.1165 7.63189 90.4619C8.1985 91.8558 9.17974 93.0444 10.4444 93.869C11.8519 94.7259 13.4824 95.1513 15.1319 95.092C16.9218 95.165 18.6864 94.6536 20.1564 93.636C21.4925 92.6234 22.4637 91.2087 22.925 89.6029L28.55 91.0589C27.6856 93.7284 25.9741 96.0477 23.672 97.6692C21.1639 99.3801 18.1725 100.252 15.1319 100.159ZM39.2141 100.159C37.8076 100.211 36.4111 99.905 35.1565 99.2708C34.1084 98.7436 33.2378 97.9238 32.6516 96.912C32.0808 95.9143 31.7876 94.7836 31.802 93.636C31.7869 92.7074 31.9459 91.7841 32.2707 90.9133C32.5762 90.0835 33.0787 89.3392 33.7356 88.7438C34.5858 88.0387 35.566 87.5046 36.6213 87.1713C37.5789 86.8436 38.5577 86.5809 39.5511 86.3851C40.6936 86.1667 41.9827 85.9483 43.4183 85.7444L48.1497 85.0601L46.1429 86.1376C46.1869 85.6293 46.1251 85.1174 45.9613 84.6339C45.7975 84.1505 45.5352 83.7057 45.1907 83.3275C44.2918 82.646 43.1664 82.3286 42.0413 82.4393C41.1825 82.4573 40.3359 82.6454 39.5511 82.9926C39.1122 83.1865 38.7188 83.4693 38.396 83.8227C38.0731 84.1762 37.828 84.5927 37.676 85.0456L32.6369 83.5022C33.1701 81.7352 34.2842 80.1971 35.801 79.1341C37.6754 77.9285 39.8851 77.3425 42.1146 77.4597C43.8874 77.4286 45.6507 77.7248 47.3148 78.3333C48.4452 78.7744 49.435 79.5103 50.1801 80.4635C50.9251 81.4167 51.3977 82.5519 51.5482 83.7497C51.5482 84.5359 51.6654 85.4241 51.6654 86.3996V99.5037H46.7581V95.1357L47.4613 96.053C46.544 97.3523 45.3419 98.4277 43.9456 99.198C42.4665 99.8839 40.8454 100.213 39.2141 100.159ZM40.4007 95.9074C41.2942 95.9351 42.1819 95.7557 42.9935 95.3832C43.6229 95.0834 44.1934 94.6741 44.678 94.1747C45.0109 93.8355 45.2967 93.4536 45.5277 93.039C45.8317 92.4056 46.0013 91.7166 46.0257 91.0152C46.0257 90.2289 46.0257 89.5592 46.0257 89.0787L47.6663 89.4718C46.0111 89.7339 44.7366 89.9523 43.6526 90.1416C42.5687 90.3309 41.7923 90.4765 41.1624 90.6221C40.6014 90.749 40.0486 90.9094 39.5071 91.1026C39.0371 91.2671 38.5932 91.4975 38.1887 91.7869C37.8841 91.9967 37.6292 92.2699 37.4417 92.5877C37.28 92.8872 37.1992 93.2234 37.2073 93.5632C37.1986 94.0146 37.3317 94.4574 37.5882 94.8299C37.8638 95.1956 38.2404 95.4738 38.6721 95.6307C39.2232 95.8396 39.8115 95.9338 40.4007 95.9074ZM56.9242 109.099V78.1004H61.8461V92.8061H62.5493V109.099H56.9242ZM67.8374 100.159C65.8954 100.239 63.9747 99.7316 62.3295 98.7029C60.8444 97.6984 59.6843 96.2873 58.9897 94.6407C58.2137 92.7978 57.8345 90.8139 57.8764 88.8166C57.8371 86.8209 58.211 84.8385 58.975 82.9926C59.6571 81.3635 60.7897 79.9601 62.2416 78.9449C63.8202 77.9251 65.6778 77.4165 67.5591 77.4889C69.5065 77.4416 71.4271 77.9466 73.0962 78.9449C74.664 79.9343 75.9263 81.3351 76.7437 82.9926C77.6424 84.8017 78.0896 86.7994 78.0474 88.8166C78.0886 90.8305 77.652 92.8257 76.773 94.6407C75.9782 96.2733 74.7595 97.6656 73.2427 98.6738C71.6288 99.6904 69.7474 100.207 67.8374 100.159ZM66.9438 95.3541C67.9912 95.3967 69.0227 95.0891 69.8735 94.4805C70.6561 93.8727 71.246 93.0539 71.5728 92.1218C71.9669 91.0646 72.1606 89.9439 72.1441 88.8166C72.1575 87.7038 71.9638 86.598 71.5728 85.5552C71.221 84.6126 70.6062 83.7893 69.8003 83.1819C68.9012 82.5703 67.8273 82.2638 66.7387 82.3083C65.7308 82.2548 64.7342 82.5422 63.9116 83.1236C63.1613 83.7038 62.6131 84.5033 62.3442 85.4096C61.6804 87.638 61.6804 90.0098 62.3442 92.2382C62.6257 93.1499 63.1897 93.9499 63.9555 94.5242C64.8373 95.11 65.8842 95.4008 66.9438 95.3541Z" fill="#0E151F"/>
<path d="M78.502 97.2906L91.2315 84.4631L91.2022 84.4194L94.1905 81.4783L94.6446 81.0269L103.61 89.9814L116.544 77.1394H102.101V72.32H124.791V94.8882H119.957V80.5319L103.595 96.7955L100.109 93.3302L99.6691 92.8643L94.6593 87.8556L81.959 100.669L78.502 97.2906Z" fill="#FFCC00"/>
</g>
<defs>
<clipPath id="clip0_2382_8778">
<rect width="139" height="109.099" fill="white"/>
</clipPath>
</defs>
</svg>
